<?xml version="1.0" encoding="UTF-8" standalone="no"?>
<svg
   xmlns:dc="http://purl.org/dc/elements/1.1/"
   xmlns:cc="http://creativecommons.org/ns#"
   xmlns:rdf="http://www.w3.org/1999/02/22-rdf-syntax-ns#"
   xmlns:svg="http://www.w3.org/2000/svg"
   xmlns="http://www.w3.org/2000/svg"
   xmlns:sodipodi="http://sodipodi.sourceforge.net/DTD/sodipodi-0.dtd"
   xmlns:inkscape="http://www.inkscape.org/namespaces/inkscape"
   width="64"
   height="64"
   viewBox="0 0 16.933333 16.933334"
   version="1.1"
   id="svg8"
   inkscape:version="1.0.2 (e86c870879, 2021-01-15)"
   sodipodi:docname="close_normal.svg"
   inkscape:export-filename="/home/sebastian/workspace/configs/settei/x11/config/awesome/icons/titlebar/close_focus.png"
   inkscape:export-xdpi="96"
   inkscape:export-ydpi="96">
  <defs
     id="defs2" />
  <sodipodi:namedview
     id="base"
     pagecolor="#ffffff"
     bordercolor="#666666"
     borderopacity="1.0"
     inkscape:pageopacity="0.0"
     inkscape:pageshadow="2"
     inkscape:zoom="11.2"
     inkscape:cx="29.177887"
     inkscape:cy="33.46607"
     inkscape:document-units="mm"
     inkscape:current-layer="layer1"
     inkscape:document-rotation="0"
     showgrid="false"
     units="px"
     inkscape:window-width="1876"
     inkscape:window-height="1121"
     inkscape:window-x="1936"
     inkscape:window-y="51"
     inkscape:window-maximized="0" />
  <metadata
     id="metadata5">
    <rdf:RDF>
      <cc:Work
         rdf:about="">
        <dc:format>image/svg+xml</dc:format>
        <dc:type
           rdf:resource="http://purl.org/dc/dcmitype/StillImage" />
        <dc:title />
      </cc:Work>
    </rdf:RDF>
  </metadata>
  <g
     inkscape:label="Layer 1"
     inkscape:groupmode="layer"
     id="layer1">
    <path
       fill="currentColor"
       d="M 13.841016,2.6789072 H 3.0923175 c -0.6847124,0 -1.2402341,0.5555217 -1.2402341,1.2402341 v 9.0950507 c 0,0.684713 0.5555217,1.240234 1.2402341,1.240234 H 13.841016 c 0.684711,0 1.240234,-0.555521 1.240234,-1.240234 V 3.9191413 c 0,-0.6847124 -0.555523,-1.2402341 -1.240234,-1.2402341 z m 0,10.1802568 c 0,0.08527 -0.06977,0.155028 -0.155029,0.155028 H 3.2473467 c -0.085265,0 -0.1550292,-0.06977 -0.1550292,-0.155028 V 4.0741705 c 0,-0.085265 0.069767,-0.1550292 0.1550292,-0.1550292 H 13.685987 c 0.08527,0 0.155029,0.069767 0.155029,0.1550292 z M 11.063406,6.8802013 9.4769407,8.4666671 11.063406,10.053133 c 0.118857,0.118855 0.118857,0.312642 0,0.434082 l -0.576191,0.576193 c -0.118856,0.118856 -0.312642,0.118856 -0.434082,0 L 8.4666657,9.4769414 6.8802,11.063408 c -0.1188559,0.118856 -0.3126426,0.118856 -0.4340817,0 L 5.8699258,10.487215 c -0.1188558,-0.118855 -0.1188558,-0.312642 0,-0.434082 L 7.4563924,8.4666671 5.8699258,6.8802013 C 5.75107,6.7613454 5.75107,6.5675587 5.8699258,6.4461187 L 6.4461183,5.8699263 c 0.118855,-0.1188551 0.3126417,-0.1188551 0.4340817,0 L 8.4666657,7.4563929 10.053133,5.8699263 c 0.118855,-0.1188551 0.312642,-0.1188551 0.434082,0 l 0.576191,0.5761924 c 0.121441,0.1188559 0.121441,0.3126426 0,0.4340826 z"
       id="path994"
       style="fill:#696158;stroke-width:0.0258381;fill-opacity:1" />
  </g>
</svg>
