<?xml version="1.0" encoding="UTF-8" standalone="no"?>
<svg
   xmlns:dc="http://purl.org/dc/elements/1.1/"
   xmlns:cc="http://creativecommons.org/ns#"
   xmlns:rdf="http://www.w3.org/1999/02/22-rdf-syntax-ns#"
   xmlns:svg="http://www.w3.org/2000/svg"
   xmlns="http://www.w3.org/2000/svg"
   xmlns:sodipodi="http://sodipodi.sourceforge.net/DTD/sodipodi-0.dtd"
   xmlns:inkscape="http://www.inkscape.org/namespaces/inkscape"
   width="64"
   height="64"
   viewBox="0 0 16.933333 16.933334"
   version="1.1"
   id="svg8"
   inkscape:version="1.0.2 (e86c870879, 2021-01-15)"
   sodipodi:docname="ontop_focus_active_hover.svg"
   inkscape:export-filename="/home/sebastian/workspace/configs/settei/x11/config/awesome/icons/titlebar/close_focus.png"
   inkscape:export-xdpi="96"
   inkscape:export-ydpi="96">
  <defs
     id="defs2" />
  <sodipodi:namedview
     id="base"
     pagecolor="#ffffff"
     bordercolor="#666666"
     borderopacity="1.0"
     inkscape:pageopacity="0.0"
     inkscape:pageshadow="2"
     inkscape:zoom="11.2"
     inkscape:cx="41.914433"
     inkscape:cy="38.556828"
     inkscape:document-units="mm"
     inkscape:current-layer="layer1"
     inkscape:document-rotation="0"
     showgrid="false"
     units="px"
     inkscape:window-width="1876"
     inkscape:window-height="1121"
     inkscape:window-x="1936"
     inkscape:window-y="51"
     inkscape:window-maximized="0" />
  <metadata
     id="metadata5">
    <rdf:RDF>
      <cc:Work
         rdf:about="">
        <dc:format>image/svg+xml</dc:format>
        <dc:type
           rdf:resource="http://purl.org/dc/dcmitype/StillImage" />
        <dc:title></dc:title>
      </cc:Work>
    </rdf:RDF>
  </metadata>
  <g
     inkscape:label="Layer 1"
     inkscape:groupmode="layer"
     id="layer1">
    <path
       fill="currentColor"
       d="m 15.064167,3.7570107 v 6.5210623 c 0,0.600028 -0.554088,1.086844 -1.237031,1.086844 H 12.590104 V 6.6552607 c 0,-0.998538 -0.925197,-1.811407 -2.061719,-1.811407 H 5.1679167 v -1.086843 c 0,-0.600029 0.554087,-1.086844 1.237031,-1.086844 h 7.4221883 c 0.682943,0 1.237031,0.486815 1.237031,1.086844 z m -3.29875,2.89825 v 6.5210623 c 0,0.600028 -0.554087,1.086844 -1.237032,1.086844 H 3.1061977 c -0.682944,0 -1.237031,-0.486816 -1.237031,-1.086844 V 6.6552607 c 0,-0.600029 0.554087,-1.086844 1.237031,-1.086844 h 7.4221873 c 0.682945,0 1.237032,0.486815 1.237032,1.086844 z m -1.752461,0.633992 c 0,-0.149441 -0.1391663,-0.271711 -0.3092583,-0.271711 h -5.875898 c -0.170092,0 -0.309258,0.12227 -0.309258,0.271711 v 1.177414 h 6.4944143 z"
       id="path3635"
       style="stroke-width:0.0241564;fill:#e5dbd0;fill-opacity:1" />
  </g>
</svg>
